<?xml version="1.0" encoding="UTF-8"?>
<svg id="Ebene_1" data-name="Ebene 1" xmlns="http://www.w3.org/2000/svg" viewBox="0 0 669.17 410.52">
  <defs>
    <style>
      .cls-1 {
        isolation: isolate;
      }
    </style>
  </defs>
  <g id="Ebene_1-2" data-name="Ebene 1">
    <g class="cls-1">
      <g class="cls-1">
        <path d="M116.18,262.47h19.61v143.83h-19.61v-143.83h0Z"/>
        <path d="M165.22,301.56h16.75v14.85c4.9-6.13,10.22-10.49,15.8-13.21,5.58-2.72,11.71-3.95,18.52-3.95,14.85,0,24.93,5.18,30.1,15.53,2.86,5.72,4.36,13.76,4.36,24.38v67.29h-17.98v-66.06c0-6.4-.95-11.58-2.86-15.53-3.13-6.54-8.85-9.81-17.03-9.81s-7.63.41-10.22,1.23c-4.77,1.5-9.13,4.36-12.67,8.58-3,3.41-4.9,7.08-5.72,10.76-.82,3.68-1.36,8.99-1.36,15.8v54.89h-17.57v-104.88l-.14.14Z"/>
        <path d="M291.75,359.99c.41,8.17,2.32,14.85,5.58,19.89,6.27,9.53,17.16,14.3,32.96,14.3s13.48-1.09,19.2-3.13c11.17-4.09,16.75-11.3,16.75-21.79s-2.32-13.35-7.08-16.75c-4.77-3.27-12.39-6.13-22.61-8.58l-18.93-4.36c-12.39-2.86-21.11-5.99-26.15-9.53-8.85-5.99-13.21-14.98-13.21-26.97s4.36-23.56,13.08-31.87c8.72-8.31,20.98-12.39,36.91-12.39s27.1,3.68,37.46,10.9c10.22,7.22,15.39,18.93,15.39,34.87h-18.25c-.95-7.76-3-13.62-5.99-17.71-5.72-7.49-15.39-11.3-29.01-11.3s-18.93,2.45-23.7,7.22c-4.77,4.77-7.22,10.49-7.22,16.89s2.86,12.26,8.58,15.53c3.68,2.04,12.12,4.77,25.33,7.9l19.48,4.63c9.4,2.18,16.75,5.31,21.79,9.13,8.85,6.67,13.35,16.48,13.35,29.28s-5.58,27.38-16.89,34.19c-11.3,6.81-24.38,10.22-39.36,10.22s-31.05-4.63-41-13.76c-9.81-9.13-14.71-21.38-14.57-36.91h18.25l-.14.14Z"/>
        <path d="M413.93,272.27h17.84v29.28h16.75v14.44h-16.75v68.37c0,3.68,1.23,6.13,3.68,7.36,1.36.68,3.68,1.09,6.81,1.09s1.77,0,2.72,0,2.18-.14,3.41-.27v14.03c-2.04.54-4.09.95-6.27,1.23-2.18.27-4.49.41-7.08.41-8.17,0-13.76-2.04-16.75-6.27-3-4.22-4.36-9.67-4.36-16.34v-69.46h-14.17v-14.44h14.17v-29.42Z"/>
        <path d="M522.34,342.83c4.09-.54,6.81-2.18,8.17-5.04.82-1.63,1.23-3.81,1.23-6.81,0-5.99-2.18-10.35-6.4-13.08-4.22-2.72-10.35-4.09-18.25-4.09s-15.66,2.45-19.48,7.49c-2.18,2.72-3.54,6.81-4.22,12.26h-16.48c.27-12.94,4.49-21.93,12.53-27.1,8.04-5.04,17.43-7.63,28.06-7.63s22.34,2.32,29.96,7.08c7.63,4.77,11.44,11.99,11.44,21.93v60.47c0,1.77.41,3.27,1.09,4.36.68,1.09,2.32,1.63,4.77,1.63s1.63,0,2.59-.14,2.04-.27,3.13-.41v13.08c-2.72.82-4.77,1.23-6.27,1.5-1.5.14-3.41.27-5.86.27-6.13,0-10.49-2.18-13.21-6.4-1.5-2.32-2.45-5.45-3-9.67-3.54,4.77-8.72,8.72-15.53,12.26-6.67,3.41-14.17,5.18-22.2,5.18s-17.71-3-23.84-8.85c-6.13-5.86-9.26-13.35-9.26-22.2s3-17.3,9.13-22.61c6.13-5.31,14.03-8.58,23.84-9.94l28.06-3.54h0ZM485.16,390.5c3.68,3,8.17,4.36,13.21,4.36s12.26-1.5,17.98-4.36c9.81-4.77,14.71-12.53,14.71-23.43v-14.17c-2.18,1.36-4.9,2.59-8.31,3.41-3.41.95-6.67,1.63-9.94,1.91l-10.62,1.36c-6.4.82-11.17,2.18-14.44,3.95-5.45,3-8.17,7.9-8.17,14.71s1.91,9.13,5.58,11.99v.27Z"/>
      </g>
      <g class="cls-1">
        <path d="M585.82,269.41c4.09-5.99,11.99-8.99,23.84-8.99s2.32,0,3.41,0c1.23,0,2.45.14,3.95.27v16.07c-1.91,0-3.13-.27-3.95-.27h-2.32c-5.45,0-8.58,1.36-9.67,4.22-1.09,2.72-1.63,9.81-1.63,21.25h17.57v13.89h-17.57v90.44h-17.43v-90.44h-14.57v-13.89h14.57v-16.48c.27-7.36,1.5-12.67,3.81-16.07h0Z"/>
      </g>
      <g class="cls-1">
        <path d="M637.98,269.41c4.09-5.99,11.99-8.99,23.84-8.99s2.32,0,3.41,0c1.23,0,2.45.14,3.95.27v16.07c-1.91,0-3.13-.27-3.95-.27h-2.32c-5.45,0-8.58,1.36-9.67,4.22-1.09,2.72-1.63,9.81-1.63,21.25h17.57v13.89h-17.57v90.44h-17.43v-90.44h-14.57v-13.89h14.57v-16.48c.27-7.36,1.5-12.67,3.81-16.07h0Z"/>
      </g>
    </g>
    <polygon points="90.03 391.18 0 391.18 0 0 656.1 0 656.1 237.68 639.89 237.68 639.89 16.34 16.34 16.34 16.34 374.83 90.03 374.83 90.03 391.18"/>
  </g>
</svg>