<?xml version="1.0" encoding="UTF-8"?>
<svg id="Ebene_1" data-name="Ebene 1" xmlns="http://www.w3.org/2000/svg" viewBox="0 0 233.34 229.54">
  <defs>
    <style>
      .cls-1 {
        fill: none;
        stroke: #000;
        stroke-linecap: round;
        stroke-miterlimit: 10;
        stroke-width: 16px;
      }
    </style>
  </defs>
  <g>
    <g>
      <path d="M93.7,219.66v-116.5c0-5.76,3.22-9.38,8.5-9.38s8.59,3.61,8.59,9.38v116.5c0,5.76-3.32,9.38-8.59,9.38s-8.5-3.61-8.5-9.38Z"/>
      <path d="M102.2,229.54c-5.55,0-9-3.78-9-9.88v-116.5c0-6.09,3.45-9.88,9-9.88s9.09,3.88,9.09,9.88v116.5c0,6-3.57,9.88-9.09,9.88ZM102.2,94.28c-4.93,0-8,3.4-8,8.88v116.5c0,5.47,3.06,8.88,8,8.88s8.09-3.4,8.09-8.88v-116.5c0-5.47-3.1-8.88-8.09-8.88Z"/>
    </g>
    <g>
      <path d="M216.85,229.04c-5.27,0-8.4-3.52-8.4-9.38v-56.74c0-15.92-8.01-24.32-22.46-24.32-16.89,0-27.54,12.01-27.54,32.03v49.02c0,5.86-3.12,9.38-8.4,9.38s-8.4-3.52-8.4-9.38v-85.84c0-5.86,3.22-9.38,8.4-9.38s8.3,3.42,8.3,9.18v10.55h.88c4.3-12.99,15.43-20.41,31.15-20.41,22.17,0,34.96,12.5,34.96,34.08v61.82c0,5.86-3.22,9.38-8.5,9.38Z"/>
      <path d="M216.85,229.54c-5.57,0-8.9-3.69-8.9-9.88v-56.74c0-15.58-7.59-23.82-21.96-23.82-16.68,0-27.04,12.08-27.04,31.53v49.02c0,6.18-3.33,9.88-8.9,9.88s-8.9-3.69-8.9-9.88v-85.84c0-6.09,3.41-9.88,8.9-9.88s8.8,3.62,8.8,9.68l.02,10.05c4.45-12.98,15.91-20.41,31.51-20.41,22.54,0,35.46,12.6,35.46,34.58v61.82c0,6.09-3.45,9.88-9,9.88ZM185.99,138.11c14.81,0,22.96,8.81,22.96,24.82v56.74c0,5.56,2.95,8.88,7.9,8.88s8-3.32,8-8.88v-61.82c0-21.34-12.56-33.58-34.46-33.58-15.5,0-26.4,7.13-30.68,20.07l-.11.34h-1.74v-11.05c0-5.43-2.92-8.68-7.8-8.68s-7.9,3.32-7.9,8.88v85.84c0,5.56,2.95,8.88,7.9,8.88s7.9-3.32,7.9-8.88v-49.02c0-20.07,10.74-32.53,28.04-32.53Z"/>
    </g>
  </g>
  <path class="cls-1" d="M48.02,214.39c-22.1,0-40.02-17.92-40.02-40.02V47.13c0-21.61,17.52-39.13,39.13-39.13l137.85.04c22.29,0,40.36,18.07,40.36,40.36v40.52"/>
</svg>