<?xml version="1.0" encoding="UTF-8"?>
<svg id="Ebene_1" data-name="Ebene 1" xmlns="http://www.w3.org/2000/svg" viewBox="0 0 318.07 318.07">
  <defs>
    <style>
      .cls-1 {
        fill: #3a5a40;
      }

      .cls-2 {
        fill: none;
        stroke-linecap: round;
        stroke-width: 16px;
      }

      .cls-2, .cls-3 {
        stroke: #fff;
        stroke-miterlimit: 10;
      }

      .cls-3 {
        fill: #fff;
      }
    </style>
  </defs>
  <rect class="cls-1" width="318.07" height="318.07" rx="25" ry="25"/>
  <g>
    <path class="cls-3" d="M136.06,267.5v-116.5c0-5.76,3.22-9.38,8.5-9.38s8.59,3.61,8.59,9.38v116.5c0,5.76-3.32,9.38-8.59,9.38s-8.5-3.61-8.5-9.38Z"/>
    <path class="cls-3" d="M259.21,276.87c-5.27,0-8.4-3.52-8.4-9.38v-56.74c0-15.92-8.01-24.32-22.46-24.32-16.89,0-27.54,12.01-27.54,32.03v49.02c0,5.86-3.12,9.38-8.4,9.38s-8.4-3.52-8.4-9.38v-85.84c0-5.86,3.22-9.38,8.4-9.38s8.3,3.42,8.3,9.18v10.55h.88c4.3-12.99,15.43-20.41,31.15-20.41,22.17,0,34.96,12.5,34.96,34.08v61.82c0,5.86-3.22,9.38-8.5,9.38Z"/>
  </g>
  <path class="cls-2" d="M90.38,262.23c-22.1,0-40.02-17.92-40.02-40.02v-127.24c0-21.61,17.52-39.13,39.13-39.13l137.85.04c22.29,0,40.36,18.07,40.36,40.36v40.52"/>
</svg>