<?xml version="1.0" encoding="UTF-8"?>
<svg id="Ebene_1" data-name="Ebene 1" xmlns="http://www.w3.org/2000/svg" viewBox="0 0 658.74 230.89">
  <defs>
    <style>
      .cls-1 {
        fill: none;
        stroke: #000;
        stroke-linecap: round;
        stroke-miterlimit: 10;
        stroke-width: 16px;
      }
    </style>
  </defs>
  <g>
    <path d="M93.7,219.66v-116.5c0-5.76,3.22-9.38,8.5-9.38s8.59,3.61,8.59,9.38v116.5c0,5.76-3.32,9.38-8.59,9.38s-8.5-3.61-8.5-9.38Z"/>
    <path d="M216.85,229.04c-5.27,0-8.4-3.52-8.4-9.38v-56.74c0-15.92-8.01-24.32-22.46-24.32-16.89,0-27.54,12.01-27.54,32.03v49.02c0,5.86-3.12,9.38-8.4,9.38s-8.4-3.52-8.4-9.38v-85.84c0-5.86,3.22-9.38,8.4-9.38s8.3,3.42,8.3,9.18v10.55h.88c4.3-12.99,15.43-20.41,31.15-20.41,22.17,0,34.96,12.5,34.96,34.08v61.82c0,5.86-3.22,9.38-8.5,9.38Z"/>
    <path d="M254.83,192.32c4,0,6.74,2.05,10.45,7.62,6.84,10.64,17.09,15.72,31.54,15.72,18.36,0,29.49-8.11,29.49-21.78,0-11.23-7.03-18.36-21.97-22.36l-22.46-6.05c-21.39-5.76-32.13-17.48-32.13-35.16,0-22.95,18.46-38.38,45.8-38.38,13.87,0,26.27,4.1,34.67,11.52,6.54,5.86,10.16,12.7,10.16,19.14,0,4.69-2.93,7.81-7.42,7.81-3.91,0-6.45-1.76-8.11-5.66-4.39-10.84-15.33-17.58-28.91-17.58-17.29,0-28.42,8.59-28.42,21.88,0,9.96,6.64,17.09,19.14,20.41l22.17,6.05c23.93,6.45,34.57,17.68,34.57,36.52,0,23.93-18.36,38.87-47.66,38.87-15.72,0-29.39-4.3-37.7-11.82-7.03-6.35-10.64-12.7-10.64-18.55,0-4.88,3.03-8.2,7.42-8.2Z"/>
    <path d="M375.83,139.68h-7.42c-4.79,0-7.81-2.64-7.81-7.03s2.93-7.13,7.81-7.13h7.52v-16.89c0-5.86,3.12-9.28,8.3-9.28s8.4,3.42,8.4,9.28v16.89h13.77c4.88,0,7.81,2.73,7.81,7.13s-3.03,7.03-7.81,7.03h-13.67v61.33c0,10.94,2.73,14.16,12.21,14.16,2.73,0,4.69-.29,6.54-.29,3.81,0,6.45,2.44,6.45,6.25,0,2.73-1.27,4.98-4.3,6.45-2.73,1.37-6.54,2.05-12.11,2.05-18.55,0-25.68-7.42-25.68-28.81v-61.13Z"/>
    <path d="M464.41,229.72c-20.02,0-33.5-12.7-33.5-31.54s13.57-30.27,36.13-30.27h27.15v-9.96c0-13.18-7.91-19.92-22.66-19.92-8.69,0-14.55,3.03-20.7,10.06-2.34,2.73-4.59,3.71-7.62,3.71-3.91,0-6.54-2.64-6.54-6.64,0-5.76,4-11.43,12.21-16.11,5.96-3.42,13.67-5.27,23.73-5.27,24.71,0,38.38,12.11,38.38,34.08v61.91c0,5.86-3.03,9.28-8.2,9.28s-7.91-3.32-8.11-8.89v-5.76h-.68c-6.15,9.96-16.6,15.33-29.59,15.33ZM469,215.66c14.16,0,25.2-9.77,25.2-22.56v-11.62h-26.27c-12.6,0-19.82,5.86-19.82,16.31s8.4,17.87,20.9,17.87Z"/>
    <path d="M554.35,229.04c-5.18,0-8.3-3.52-8.3-9.38v-80.08h-8.5c-4.79,0-7.81-2.64-7.81-7.03s2.93-7.03,7.81-7.03h8.5v-10.06c0-19.53,9.57-29,28.91-29,5.27,0,9.38,1.07,11.82,2.93,1.95,1.56,3.03,3.42,3.03,5.76,0,3.91-2.34,6.35-6.25,6.35-4.1,0-4.88-.78-9.57-.78-7.52,0-11.23,4.49-11.23,13.96v10.84h14.45c4.79,0,7.81,2.64,7.81,7.03s-3.03,7.03-7.81,7.03h-14.36v80.08c0,5.86-3.22,9.38-8.5,9.38Z"/>
    <path d="M623.29,229.04c-5.18,0-8.3-3.52-8.3-9.38v-80.08h-8.5c-4.79,0-7.81-2.64-7.81-7.03s2.93-7.03,7.81-7.03h8.5v-10.06c0-19.53,9.57-29,28.91-29,5.27,0,9.38,1.07,11.82,2.93,1.95,1.56,3.03,3.42,3.03,5.76,0,3.91-2.34,6.35-6.25,6.35-4.1,0-4.88-.78-9.57-.78-7.52,0-11.23,4.49-11.23,13.96v10.84h14.45c4.79,0,7.81,2.64,7.81,7.03s-3.03,7.03-7.81,7.03h-14.36v80.08c0,5.86-3.22,9.38-8.5,9.38Z"/>
  </g>
  <path class="cls-1" d="M630.08,48.36c0-22.29-18.07-40.36-40.36-40.36H47.13c-21.61,0-39.13,17.52-39.13,39.13v127.24c0,22.1,17.92,40.02,40.02,40.02"/>
</svg>