<?xml version="1.0" encoding="UTF-8"?>
<svg xmlns="http://www.w3.org/2000/svg" version="1.1" viewBox="0 0 675.4 429.3">
  <defs>
    <style>
      .cls-1 {
        isolation: isolate;
      }
    </style>
  </defs>
  <!-- Generator: Adobe Illustrator 28.7.3, SVG Export Plug-In . SVG Version: 1.2.0 Build 164)  -->
  <g>
    <g id="Ebene_1">
      <g class="cls-1">
        <g class="cls-1">
          <path d="M83.3,190.7h14.4v105.6h-14.4v-105.6Z"/>
          <path d="M119.3,219.4h12.3v10.9c3.6-4.5,7.5-7.7,11.6-9.7,4.1-2,8.6-2.9,13.6-2.9,10.9,0,18.3,3.8,22.1,11.4,2.1,4.2,3.2,10.1,3.2,17.9v49.4h-13.2v-48.5c0-4.7-.7-8.5-2.1-11.4-2.3-4.8-6.5-7.2-12.5-7.2s-5.6.3-7.5.9c-3.5,1.1-6.7,3.2-9.3,6.3-2.2,2.5-3.6,5.2-4.2,7.9-.6,2.7-1,6.6-1,11.6v40.3h-12.9v-77Z"/>
          <path d="M212.2,262.3c.3,6,1.7,10.9,4.1,14.6,4.6,7,12.6,10.5,24.2,10.5s9.9-.8,14.1-2.3c8.2-3,12.3-8.3,12.3-16s-1.7-9.8-5.2-12.3c-3.5-2.4-9.1-4.5-16.6-6.3l-13.9-3.2c-9.1-2.1-15.5-4.4-19.2-7-6.5-4.4-9.7-11-9.7-19.8s3.2-17.3,9.6-23.4c6.4-6.1,15.4-9.1,27.1-9.1s19.9,2.7,27.5,8c7.5,5.3,11.3,13.9,11.3,25.6h-13.4c-.7-5.7-2.2-10-4.4-13-4.2-5.5-11.3-8.3-21.3-8.3s-13.9,1.8-17.4,5.3c-3.5,3.5-5.3,7.7-5.3,12.4s2.1,9,6.3,11.4c2.7,1.5,8.9,3.5,18.6,5.8l14.3,3.4c6.9,1.6,12.3,3.9,16,6.7,6.5,4.9,9.8,12.1,9.8,21.5s-4.1,20.1-12.4,25.1c-8.3,5-17.9,7.5-28.9,7.5s-22.8-3.4-30.1-10.1c-7.2-6.7-10.8-15.7-10.7-27.1h13.4Z"/>
          <path d="M301.9,197.9h13.1v21.5h12.3v10.6h-12.3v50.2c0,2.7.9,4.5,2.7,5.4,1,.5,2.7.8,5,.8s1.3,0,2,0c.7,0,1.6-.1,2.5-.2v10.3c-1.5.4-3,.7-4.6.9-1.6.2-3.3.3-5.2.3-6,0-10.1-1.5-12.3-4.6s-3.2-7.1-3.2-12v-51h-10.4v-10.6h10.4v-21.5Z"/>
          <path d="M381.5,249.7c3-.4,5-1.6,6-3.7.6-1.2.9-2.8.9-5,0-4.4-1.6-7.6-4.7-9.6-3.1-2-7.6-3-13.4-3s-11.5,1.8-14.3,5.5c-1.6,2-2.6,5-3.1,9h-12.1c.2-9.5,3.3-16.1,9.2-19.9,5.9-3.7,12.8-5.6,20.6-5.6s16.4,1.7,22,5.2c5.6,3.5,8.4,8.8,8.4,16.1v44.4c0,1.3.3,2.4.8,3.2.5.8,1.7,1.2,3.5,1.2s1.2,0,1.9-.1,1.5-.2,2.3-.3v9.6c-2,.6-3.5.9-4.6,1.1-1.1.1-2.5.2-4.3.2-4.5,0-7.7-1.6-9.7-4.7-1.1-1.7-1.8-4-2.2-7.1-2.6,3.5-6.4,6.4-11.4,9-4.9,2.5-10.4,3.8-16.3,3.8s-13-2.2-17.5-6.5c-4.5-4.3-6.8-9.8-6.8-16.3s2.2-12.7,6.7-16.6c4.5-3.9,10.3-6.3,17.5-7.3l20.6-2.6ZM354.2,284.7c2.7,2.2,6,3.2,9.7,3.2s9-1.1,13.2-3.2c7.2-3.5,10.8-9.2,10.8-17.2v-10.4c-1.6,1-3.6,1.9-6.1,2.5-2.5.7-4.9,1.2-7.3,1.4l-7.8,1c-4.7.6-8.2,1.6-10.6,2.9-4,2.2-6,5.8-6,10.8s1.4,6.7,4.1,8.8Z"/>
        </g>
        <g class="cls-1">
          <path d="M428.1,195.8c3-4.4,8.8-6.6,17.5-6.6s1.7,0,2.5,0c.9,0,1.8.1,2.9.2v11.8c-1.4,0-2.3-.2-2.9-.2-.6,0-1.2,0-1.7,0-4,0-6.3,1-7.1,3.1-.8,2-1.2,7.2-1.2,15.6h12.9v10.2h-12.9v66.4h-12.8v-66.4h-10.7v-10.2h10.7v-12.1c.2-5.4,1.1-9.3,2.8-11.8Z"/>
        </g>
        <g class="cls-1">
          <path d="M466.4,195.8c3-4.4,8.8-6.6,17.5-6.6s1.7,0,2.5,0c.9,0,1.8.1,2.9.2v11.8c-1.4,0-2.3-.2-2.9-.2-.6,0-1.2,0-1.7,0-4,0-6.3,1-7.1,3.1-.8,2-1.2,7.2-1.2,15.6h12.9v10.2h-12.9v66.4h-12.8v-66.4h-10.7v-10.2h10.7v-12.1c.2-5.4,1.1-9.3,2.8-11.8Z"/>
        </g>
      </g>
      <polygon points="64.1 285.2 -2 285.2 -2 -2 479.7 -2 479.7 172.5 467.8 172.5 467.8 10 10 10 10 273.2 64.1 273.2 64.1 285.2"/>
    </g>
  </g>
</svg>